<svg version="1.1" viewBox="0.0 0.0 100.0 100.0" fill="none" stroke="none" stroke-linecap="square" stroke-miterlimit="10" xmlns:xlink="http://www.w3.org/1999/xlink" xmlns="http://www.w3.org/2000/svg"><clipPath id="p.0"><path d="m0 0l100.0 0l0 100.0l-100.0 0l0 -100.0z" clip-rule="nonzero"/></clipPath><g clip-path="url(#p.0)"><path fill="#000000" fill-opacity="0.0" d="m0 0l100.0 0l0 100.0l-100.0 0z" fill-rule="evenodd"/><path fill="#ffffff" d="m33.547714 4.3507623E-7c-4.9082813 0 -9.28406 1.4638227 -13.127335 4.391461c-3.843277 2.9071698 -6.9225273 6.756094 -9.237754 11.546779l0 -13.727155l-11.182544 0l0 97.84052l12.502223 0l0 -50.76283c0 -8.905762 0.6714153 -15.723274 2.014247 -20.45254c1.3428316 -4.729265 3.5037098 -8.322279 6.4826336 -10.779041c2.99436 -2.4567604 6.251114 -3.6851416 9.770256 -3.6851416c4.630453 0 7.9643803 1.8425703 10.00178 5.527713c2.0373993 3.6851425 3.056099 9.212856 3.056099 16.58314l0 63.5687l12.50222 0l0 -56.843315c0 -10.07272 1.7132683 -17.39182 5.139805 -21.957304c3.4265366 -4.5859528 7.7328568 -6.878932 12.918961 -6.878932c2.8708801 0 5.3713303 0.89057636 7.501335 2.6717272c2.130005 1.7811527 3.596321 4.1355515 4.3989334 7.0631905c0.81804657 2.9071693 1.227066 7.6773777 1.227066 14.310635l0 61.634l12.43277 0l0 -67.16171c0 -11.178265 -1.9679489 -19.449358 -5.9038315 -24.81329c-3.9358826 -5.384399 -9.561882 -8.076603 -16.877998 -8.076603c-9.353516 0 -16.94746 5.71197 -22.78183 17.13591c-1.4354401 -5.404874 -3.905014 -9.612078 -7.4087257 -12.621611c-3.4882736 -3.0095327 -7.9643784 -4.514299 -13.42831 -4.514299z" fill-rule="evenodd"/></g></svg>